<svg width="123" height="121" viewBox="0 0 123 121" fill="none" xmlns="http://www.w3.org/2000/svg">
    <path
        d="M100.636 10.1419V11.2578V32.8968V34.0127C107.2 33.6393 107.22 27.5159 107.22 22.0773C107.22 16.6386 107.2 10.5155 100.636 10.1419Z"
        fill="#010002" />
    <path
        d="M63.6154 66.9747C56.468 68.3412 53.2722 72.3778 53.2722 77.1479C53.2722 82.7522 57.689 87.3368 67.7324 87.7751C71.0311 93.9767 76.9328 98.3239 87.5107 98.3239C111.464 98.3239 111.464 76.0364 111.464 60.3819H63.5552C63.5552 62.4819 63.5574 64.7046 63.6154 66.9747ZM95.166 87.9831C99.2026 82.0209 100.681 75.2157 100.665 68.0884C100.659 64.7316 105.863 64.7316 105.869 68.0884C105.885 76.0634 104.174 83.9396 99.6588 90.6108C97.7893 93.3728 93.2787 90.7718 95.166 87.9831ZM59.4335 77.2596C59.3865 74.6721 59.9367 72.6527 63.8325 71.6375C64.1098 75.542 64.6689 79.4491 65.7848 83.0273C60.1513 82.2914 59.4872 80.2519 59.4335 77.2596Z"
        fill="#010002" />
    <path
        d="M38.0182 120.764H117.469C121.061 120.764 123 117.085 123 113.62V108.555C123 104.731 120.777 100.639 117.472 100.636H44.1614C41.5673 100.636 39.4673 99.932 38.0182 98.664V120.764Z"
        fill="#010002" />
    <path
        d="M74.6275 0H6.16332C2.59194 0 0 2.58974 0 6.15451V113.621C0 117.071 2.47556 120.764 6.16332 120.764H35.7817V93.3549V64.8546V59.3532V59.351C35.7817 54.6904 39.2279 51.4365 44.1614 51.4365H74.6275C78.2594 51.4365 80.5091 47.6572 80.5091 44.1548V40.2547V38.0182V6.70916V6.15671C80.5091 5.55502 80.4263 5.00285 80.3055 4.47268C79.6884 1.74676 77.5727 0 74.6275 0ZM30.931 27.5745C30.8059 27.5745 30.6782 27.5654 30.5508 27.541L28.793 27.2391C27.2768 30.5893 23.9223 32.9284 20.0064 32.9284C14.6726 32.9284 10.3477 28.6054 10.3477 23.2719C10.3477 17.9383 14.6707 13.6153 20.0064 13.6153C25.1947 13.6153 29.3925 17.7146 29.6206 22.8449L31.3091 23.1335C32.5257 23.3415 33.3441 24.4975 33.1339 25.7166C32.946 26.805 32.0002 27.5745 30.931 27.5745Z"
        fill="#010002" />
    <path
        d="M88.2134 42.4909H88.9312H92.5004H93.3144L94.0344 40.2547L94.7547 38.0182H98.3998V6.70916H82.7453V38.0182H86.1626L87.1891 40.2547L88.2134 42.4909Z"
        fill="#010002" />
</svg>
